<svg width="717" height="538" viewBox="0 0 717 538" fill="none" xmlns="http://www.w3.org/2000/svg">
<g clip-path="url(#clip0_112_19097)">
<path d="M179.967 89.835C179.967 139.308 220.119 179.46 269.592 179.46H537.75C636.696 179.46 717 259.764 717 358.71C717 457.656 636.696 537.96 537.75 537.96H179.25C80.304 537.96 0 457.656 0 358.71V89.835C0 40.362 40.152 0.209961 89.625 0.209961C139.815 0.209961 179.967 40.362 179.967 89.835Z" fill="#014E3D"/>
<path d="M634.7 114.61L559 114.61" stroke="white" stroke-miterlimit="10" stroke-linecap="round"/>
<path d="M601.86 128.28L559 128.28" stroke="white" stroke-miterlimit="10" stroke-linecap="round"/>
<path d="M468.37 292.99L457.77 313.32L478.1 323.92L488.7 303.59L468.37 292.99Z" fill="#001F2C" stroke="#001F2C" stroke-linecap="round" stroke-linejoin="round"/>
<path d="M458.99 295.95L448.39 316.28L468.72 326.88L479.32 306.55L458.99 295.95Z" fill="#FFB000" stroke="#001F2C" stroke-linecap="round" stroke-linejoin="round"/>
<path d="M468.37 292.99L457.77 313.32L478.1 323.92L488.7 303.59L468.37 292.99Z" fill="#001F2C" stroke="#001F2C" stroke-linecap="round" stroke-linejoin="round"/>
<path d="M458.99 295.95L448.39 316.28L468.72 326.88L479.32 306.55L458.99 295.95Z" fill="#00F24C" stroke="#001F2C" stroke-linecap="round" stroke-linejoin="round"/>
<path d="M406.77 357.82H79.73L48.01 183.59H375.05L406.77 357.82Z" fill="#97FF00" stroke="#001F2C" stroke-linejoin="round"/>
<path d="M79.74 357.82L71.9 371.28L40.17 197.06L48.01 183.59L79.74 357.82Z" fill="#001F2C" stroke="#001F2C" stroke-linejoin="round"/>
<path d="M71.9 371.29H398.93L406.77 357.83H79.74L71.9 371.29Z" fill="#00F24C" stroke="#001F2C" stroke-linejoin="round"/>
<path d="M367.04 312.15L351.01 218.56C349.78 211.39 342.98 205.59 335.81 205.59H184.82C177.65 205.59 172.84 211.4 174.06 218.56L190.09 312.15C191.32 319.32 198.12 325.12 205.29 325.12H356.29C363.46 325.12 368.27 319.31 367.05 312.15H367.04Z" fill="#001F2C"/>
<path d="M555.1 60.2801C555.1 55.9101 551.56 52.3601 547.18 52.3601H257.79C253.42 52.3601 249.87 55.9101 249.87 60.2801V75.3101H555.09V60.2801H555.1ZM262.07 69.3301C259.33 69.3301 257.12 67.1101 257.12 64.3701C257.12 61.6301 259.34 59.4201 262.07 59.4201C264.8 59.4201 267.03 61.6401 267.03 64.3701C267.03 67.1001 264.81 69.3301 262.07 69.3301ZM277.02 69.3301C274.28 69.3301 272.07 67.1101 272.07 64.3701C272.07 61.6301 274.29 59.4201 277.02 59.4201C279.75 59.4201 281.98 61.6401 281.98 64.3701C281.98 67.1001 279.76 69.3301 277.02 69.3301ZM291.97 69.3301C289.23 69.3301 287.02 67.1101 287.02 64.3701C287.02 61.6301 289.24 59.4201 291.97 59.4201C294.7 59.4201 296.93 61.6401 296.93 64.3701C296.93 67.1001 294.71 69.3301 291.97 69.3301Z" fill="#00F24C" stroke="#001F2C" stroke-miterlimit="10"/>
<path d="M249.88 75.3101V250.65C249.88 255.02 253.42 258.57 257.8 258.57H547.18C551.55 258.57 555.1 255.02 555.1 250.65V75.3101H249.88Z" fill="white" stroke="#001F2C" stroke-miterlimit="10"/>
<path d="M262.06 59.4099C259.32 59.4099 257.11 61.6299 257.11 64.3599C257.11 67.0899 259.33 69.3199 262.06 69.3199C264.79 69.3199 267.02 67.0999 267.02 64.3599C267.02 61.6199 264.8 59.4099 262.06 59.4099Z" fill="white" stroke="#001F2C" stroke-miterlimit="10"/>
<path d="M277.01 59.4099C274.27 59.4099 272.06 61.6299 272.06 64.3599C272.06 67.0899 274.28 69.3199 277.01 69.3199C279.74 69.3199 281.97 67.0999 281.97 64.3599C281.97 61.6199 279.75 59.4099 277.01 59.4099Z" fill="white" stroke="#001F2C" stroke-miterlimit="10"/>
<path d="M291.97 59.4099C289.23 59.4099 287.02 61.6299 287.02 64.3599C287.02 67.0899 289.24 69.3199 291.97 69.3199C294.7 69.3199 296.93 67.0999 296.93 64.3599C296.93 61.6199 294.71 59.4099 291.97 59.4099Z" fill="white" stroke="#001F2C" stroke-miterlimit="10"/>
<path d="M173.07 443.95L197.73 371.29H189.49L164.82 443.95H173.07Z" fill="#001F2C" stroke="#001F2C" stroke-linejoin="round"/>
<path d="M275.28 371.29L250.62 443.95H173.07L197.73 371.29H275.28Z" fill="#00F24C" stroke="#001F2C" stroke-linejoin="round"/>
<path d="M117.28 445.98H108.32V451.02H117.28V445.98Z" fill="#00F24C" stroke="#001F2C" stroke-linejoin="round"/>
<path d="M192.84 385.69L270.15 386.42L275.28 371.29H197.73L192.85 385.69H192.84Z" fill="#001F2C" stroke="#001F2C" stroke-linejoin="round"/>
<path d="M251.09 372.83C253.97 369.49 254.39 369.15 258.27 367.07L259.52 366.73L270.01 372.69C269.19 373.04 268.36 373.4 267.53 373.76C265.37 374.72 260.56 378.98 259.18 380.89C240.98 405.98 234.34 406.63 231.87 406.44C221.93 405.66 243.67 381.44 251.09 372.84V372.83Z" fill="#001F2C" stroke="#001F2C" stroke-miterlimit="10"/>
<path d="M230.7 377.56C233.9 374.53 237.32 371.77 241.39 370.08L244.41 368.97L250.06 379.19C249.03 379.5 248 379.82 246.97 380.16C244.73 380.9 239.52 384.65 237.93 386.4C224.75 400.96 219.4 410.59 208.15 409.03C199 407.76 222.44 385.37 230.7 377.56Z" fill="#001F2C" stroke="#001F2C" stroke-miterlimit="10"/>
<path d="M284.68 389.63C286.61 390.86 286.66 393.64 284.78 394.93C280.32 398.01 274.83 397.89 265.48 408.81C257.03 418.67 251.9 407.06 256.77 400.37C261.64 393.68 267.19 391.81 271.13 386.91C274.01 383.33 280.76 387.13 284.69 389.63H284.68Z" fill="#001F2C" stroke="#001F2C" stroke-miterlimit="10"/>
<path d="M225.84 370.57C227.96 368.52 230.18 366.59 232.63 365.01L244.23 372.46C243.63 372.65 243.03 372.85 242.42 373.06C240.15 373.83 235.04 377.87 233.28 379.51C217.7 394.06 210.59 403.94 203.19 402.85C192.28 401.23 217.5 378.62 225.83 370.59V370.57H225.84Z" fill="#FFBE00" stroke="#001F2C" stroke-miterlimit="10"/>
<path d="M403.43 367.12C417.65 368.94 426.51 374.75 436.63 379.68L559.13 448.85L581.22 385.58L428.51 344C428.51 344 422.81 343.04 422.8 343.03L416.21 341.7C413.9 341.27 416.73 342.88 415.6 344.95L403.44 367.14H403.43V367.12Z" fill="#FFBE00" stroke="#001F2C" stroke-miterlimit="10"/>
<path d="M590.05 397.54C590.06 397.67 590.05 397.81 590.05 397.94C590.03 398.92 590 399.9 589.94 400.87C589.94 400.96 589.94 401.04 589.93 401.13C589.89 402.08 589.82 403.02 589.74 403.95V404.03C589.71 404.53 589.66 405.02 589.61 405.51C589.61 405.63 589.59 405.74 589.58 405.86C589.56 406.11 589.54 406.37 589.51 406.62C589.41 407.67 589.3 408.69 589.16 409.72C589.07 410.43 588.97 411.13 588.88 411.83C587.037 424.882 583.131 437.264 577.486 448.642C575.06 453.534 568.971 455.072 564.249 452.332L542.82 439.9L527.12 430.8L526.78 430.6L470.35 397.85L469.28 397.23L505.06 365.18L520.2 369.39L520.33 369.42L571.93 383.76L580.98 386.28L589.94 388.78H589.95C589.97 389.11 589.98 389.42 589.99 389.75C590.01 390.08 590.01 390.4 590.02 390.73V391.21C590.106 393.322 590.115 395.426 590.05 397.54Z" fill="#001F2C" stroke="#001F2C" stroke-miterlimit="10"/>
<path d="M389.16 329.09C392.19 327.28 392.61 327.14 396.08 326.53L397.12 326.59L403.57 333.78C402.86 333.84 402.14 333.9 401.42 333.97C399.54 334.15 394.8 336.17 393.27 337.27C373.09 351.71 367.88 350.52 366.05 349.74C358.7 346.62 381.36 333.75 389.18 329.1H389.16V329.09Z" fill="#001F2C" stroke="#001F2C" stroke-miterlimit="10"/>
<path d="M377.78 322.74C381.57 320.82 386.06 320.87 390.27 321.31L393.34 321.75L393.44 333C392.43 332.79 391.4 332.59 390.37 332.4C388.13 331.99 381.98 332.79 379.84 333.54C361.97 339.83 352.02 342.58 344.2 339.03C332.28 333.63 361.52 330.94 377.77 322.72L377.78 322.74Z" fill="#001F2C" stroke="#001F2C" stroke-miterlimit="10"/>
<path d="M377.63 316.25C380.42 315.28 381.62 317.52 384.53 317.78L390.97 329.05C390.38 328.83 389.78 328.62 389.18 328.41C386.91 327.62 380.4 327.66 378.01 327.87C356.78 329.76 345.25 331.7 339.94 327.74C331.05 321.12 358.28 322.98 377.64 316.25H377.62H377.63Z" fill="#FFBE00" stroke="#001F2C" stroke-miterlimit="10"/>
<path d="M360.24 329.47C360.24 329.47 373.83 324.71 368.87 316.68C371.08 314.8 368.1 316.21 368.1 316.21L382.12 324.78C382.12 324.78 382.64 330.9 380.11 330.82C377.58 330.74 360.24 329.47 360.24 329.47Z" fill="#001F2C" stroke="#001F2C" stroke-miterlimit="10"/>
<path d="M410.82 367.17C410.82 367.17 399.05 372.5 377.32 359.3C370.05 354.88 369.63 354.77 366.6 353.57C359.38 350.7 351.37 352.03 350.67 347.6C350.44 346.17 352.31 344.17 354.65 343.41C362.67 340.74 366.53 341.76 384.19 348.43C391.62 349.53 379.99 329.25 368.89 319.94C357.8 310.62 348.01 309.72 338.18 305.25C331.5 302.2 321.83 291.33 350.92 298.94C353.53 299.62 357.56 300.68 362.2 302.29C373.62 306.25 381.24 310.86 384.99 313.39C387.13 314.84 391.41 318.25 398.77 323.72C409.79 331.89 415.08 334.86 422.87 339.45C432.17 344.92 443.68 348.06 443.68 348.06" fill="#FFBE00"/>
<path d="M410.82 367.17C410.82 367.17 399.05 372.5 377.32 359.3C370.05 354.88 369.63 354.77 366.6 353.57C359.38 350.7 351.37 352.03 350.67 347.6C350.44 346.17 352.31 344.17 354.65 343.41C362.67 340.74 366.53 341.76 384.19 348.43C391.62 349.53 379.99 329.25 368.89 319.94C357.8 310.62 348.01 309.72 338.18 305.25C331.5 302.2 321.83 291.33 350.92 298.94C353.53 299.62 357.56 300.68 362.2 302.29C373.62 306.25 381.24 310.86 384.99 313.39C387.13 314.84 391.41 318.25 398.77 323.72C409.79 331.89 415.08 334.86 422.87 339.45C432.17 344.92 443.68 348.06 443.68 348.06" stroke="#001F2C" stroke-linejoin="round"/>
<path d="M590.09 394.63C590.09 395.6 590.08 396.56 590.05 397.53C590.06 397.66 590.05 397.8 590.05 397.93C590.03 398.91 590 399.89 589.94 400.86C589.94 400.95 589.94 401.03 589.93 401.12C589.89 402.07 589.82 403.01 589.74 403.94V404.02C589.71 404.52 589.66 405.01 589.61 405.5L569.75 420.12L569 420.68L560.64 426.82L543.03 439.76L542.83 439.89L524.52 453.35L518.84 457.53C514.25 460.91 508.44 462.17 502.86 461.02L498.77 460.18L312.79 409.72C310.49 409.1 308.12 408.89 305.75 409.03C290.78 409.86 277.44 404.99 270.69 401.92C268.38 400.87 266.18 399.64 264.06 398.27C259.18 395.07 245.71 386.89 229.09 381.91L229.96 366.09V366.08L235.54 363.46C236.15 363.18 237.56 362.98 239.3 362.83C247.07 362.17 254.9 362.81 262.5 364.62C281.51 369.16 318.18 377.91 319.09 378.17L468.33 397.58H468.34L470.37 397.84L485.52 399.81L514.28 374.71L520.35 369.41L520.72 369.08L557.83 336.71L566.793 328.883C568.154 327.695 570.294 327.931 571.24 329.47V329.47C572.44 331.34 573.57 333.24 574.65 335.18C574.92 335.66 575.18 336.14 575.45 336.63C575.54 336.79 575.64 336.97 575.72 337.13C576.69 338.91 577.61 340.71 578.47 342.55C578.67 342.95 578.86 343.37 579.05 343.78L579.37 344.49C579.73 345.26 580.07 346.05 580.41 346.83L582.31 351.54C582.5 352.03 582.68 352.52 582.86 353.02C583.12 353.74 583.38 354.46 583.62 355.18C583.88 355.94 584.14 356.72 584.38 357.49C584.41 357.57 584.43 357.65 584.46 357.73C584.62 358.25 584.79 358.78 584.94 359.31L585.19 360.14C585.35 360.65 585.5 361.18 585.64 361.7L586.21 363.79C586.45 364.68 586.68 365.59 586.89 366.49L587.44 368.94C587.55 369.38 587.64 369.82 587.72 370.26C587.88 371.06 588.04 371.85 588.18 372.65C588.35 373.59 588.52 374.54 588.67 375.5C588.67 375.55 588.68 375.61 588.69 375.66C588.77 376.16 588.84 376.66 588.91 377.18C589.03 377.94 589.13 378.7 589.22 379.46C589.32 380.22 589.41 380.99 589.48 381.75C589.59 382.77 589.69 383.8 589.76 384.82C589.85 385.83 589.91 386.85 589.97 387.87V388.02C589.99 388.27 590 388.53 590.01 388.79C590.03 389.12 590.04 389.43 590.05 389.76C590.07 390.09 590.07 390.41 590.08 390.74V391.22C590.127 392.361 590.09 393.494 590.09 394.63Z" fill="#FFBE00" stroke="#001F2C" stroke-miterlimit="10"/>
<path d="M229.07 381.91C222.86 379.93 217.71 380.44 211.16 382.97C199.76 387.37 192.52 389.06 188.99 387.38C187.03 386.45 187.07 383.64 189.06 382.78L212.45 370.09C218.11 367.3 218.21 366.39 237.37 365.81" fill="#FFBE00"/>
<path d="M229.07 381.91C222.86 379.93 217.71 380.44 211.16 382.97C199.76 387.37 192.52 389.06 188.99 387.38C187.03 386.45 187.07 383.64 189.06 382.78L212.45 370.09C218.11 367.3 218.21 366.39 237.37 365.81" stroke="#001F2C" stroke-miterlimit="10"/>
<path d="M575.71 337.14C576.67 338.92 577.58 340.74 578.46 342.56C577.6 340.72 576.68 338.91 575.71 337.14ZM589.9 387.99C589.92 388.24 589.93 388.5 589.93 388.76C589.93 388.5 589.91 388.24 589.89 387.99H589.9ZM590.03 390.71C590.01 390.38 590.01 390.06 589.99 389.73C589.98 389.4 589.97 389.09 589.95 388.76C589.94 388.5 589.93 388.24 589.91 387.99V387.84C589.86 386.82 589.79 385.8 589.7 384.79C589.62 383.77 589.53 382.74 589.42 381.72C589.34 380.96 589.26 380.19 589.16 379.43C589.07 378.67 588.96 377.9 588.85 377.15C588.78 376.64 588.71 376.14 588.63 375.63C588.63 375.58 588.61 375.52 588.61 375.47C588.46 374.51 588.29 373.56 588.12 372.62C587.98 371.82 587.83 371.03 587.66 370.23C587.57 369.79 587.49 369.35 587.38 368.91L586.83 366.46C586.62 365.56 586.39 364.65 586.15 363.76L585.58 361.67C585.44 361.15 585.3 360.62 585.13 360.11L584.88 359.28C584.73 358.75 584.56 358.22 584.4 357.7C584.38 357.62 584.36 357.54 584.32 357.46C584.08 356.69 583.82 355.91 583.56 355.15C583.32 354.43 583.06 353.71 582.8 352.99C582.63 352.49 582.44 352 582.25 351.51L580.35 346.8C580.01 346.02 579.67 345.23 579.31 344.46L578.99 343.75C578.8 343.34 578.61 342.92 578.41 342.52C577.55 340.68 576.63 338.87 575.66 337.1C575.57 336.94 575.47 336.76 575.39 336.6V336.6C571.936 330.951 564.204 329.819 559.275 334.241L557.37 335.95L520.53 369.03L520.16 369.36L514.22 374.69L560.57 426.78L564.34 431.01L565.66 429.97L567.57 428.47L588.83 411.77C588.93 411.06 589.03 410.36 589.11 409.66C589.25 408.64 589.36 407.61 589.46 406.56C589.48 406.31 589.5 406.05 589.53 405.8C589.54 405.68 589.55 405.57 589.56 405.45C589.61 404.96 589.66 404.47 589.69 403.97V403.89C589.77 402.95 589.83 402.02 589.88 401.07C589.89 400.98 589.89 400.9 589.89 400.81C589.94 399.84 589.98 398.86 590 397.88C590 397.75 590.02 397.61 590.01 397.48C590.08 395.229 590 393.5 590.03 390.71Z" fill="#FFEE9F" stroke="#001F2C" stroke-miterlimit="10"/>
<path d="M590.09 394.14V394.63C590.09 395.6 590.08 396.56 590.05 397.53C590.06 397.66 590.05 397.8 590.05 397.93C590.03 398.91 590 399.89 589.94 400.86C589.94 400.95 589.94 401.03 589.93 401.12C589.89 402.07 589.82 403.01 589.74 403.94V404.02C589.71 404.52 589.66 405.01 589.61 405.5C589.61 405.62 589.59 405.73 589.58 405.85C589.56 406.1 589.54 406.36 589.51 406.61C589.41 407.66 589.3 408.68 589.16 409.71C589.07 410.42 588.97 411.12 588.88 411.82L567.62 428.52C568.43 425.76 569.12 422.97 569.73 420.13C569.99 418.9 570.24 417.66 570.47 416.42V416.39C571.78 409.18 572.45 401.75 572.42 394.16C572.41 390.67 572.25 387.19 571.94 383.77C571.93 383.53 571.91 383.28 571.87 383.04C570.3 366.4 565.39 350.75 557.82 336.74C557.69 336.5 557.56 336.25 557.42 336.01L565.506 328.748C567.268 327.165 569.98 327.491 571.25 329.49V329.49C572.44 331.35 573.57 333.26 574.66 335.2C574.93 335.68 575.19 336.16 575.46 336.65C575.55 336.81 575.65 336.99 575.73 337.15C576.69 338.93 577.6 340.75 578.48 342.57C578.68 342.97 578.87 343.39 579.06 343.8L579.38 344.51C579.74 345.28 580.08 346.07 580.42 346.85L582.32 351.56C582.51 352.05 582.69 352.54 582.87 353.04C583.13 353.76 583.39 354.48 583.63 355.2C583.89 355.96 584.15 356.74 584.39 357.51C584.42 357.59 584.44 357.67 584.47 357.75C584.63 358.27 584.8 358.8 584.95 359.33L585.2 360.16C585.36 360.67 585.51 361.2 585.65 361.72L586.22 363.81C586.46 364.7 586.69 365.61 586.9 366.51L587.45 368.96C587.56 369.4 587.65 369.84 587.73 370.28C587.89 371.08 588.05 371.87 588.19 372.67C588.36 373.61 588.53 374.56 588.68 375.52C588.68 375.57 588.69 375.63 588.7 375.68C588.78 376.18 588.85 376.68 588.92 377.2C589.04 377.96 589.14 378.72 589.23 379.48C589.33 380.24 589.42 381.01 589.49 381.77C589.6 382.79 589.7 383.82 589.77 384.84C589.86 385.85 589.92 386.87 589.98 387.89V388.04C590 388.29 590.01 388.55 590.02 388.81C590.04 389.14 590.05 389.45 590.06 389.78C590.08 390.11 590.08 390.43 590.09 390.76V391.24C590.129 392.187 590.09 393.602 590.09 394.14Z" fill="#001F2C" stroke="#001F2C" stroke-miterlimit="10"/>
<path d="M366.27 443.95H159.65V453.24H366.27V443.95Z" fill="#00F24C" stroke="#001F2C" stroke-linejoin="round"/>
<path d="M159.65 443.95H107.03V453.24H159.65V443.95Z" fill="#001F2C" stroke="#001F2C" stroke-linejoin="round"/>
<path d="M426.03 130.16L416.28 132.06L414.46 122.72C413.75 119.09 412.34 115.64 410.3 112.55C408.26 109.46 405.63 106.82 402.56 104.75C399.49 102.68 396.05 101.25 392.43 100.51C388.81 99.77 385.08 99.76 381.45 100.47C377.83 101.18 374.37 102.6 371.28 104.63C368.24 106.64 365.63 109.22 363.58 112.23C363.61 112.17 363.65 112.1 363.68 112.04C363.64 112.11 363.6 112.19 363.56 112.26C363.54 112.29 363.51 112.33 363.49 112.36C361.42 115.43 359.99 118.87 359.25 122.49C358.51 126.11 358.5 129.84 359.21 133.47L361.03 142.81L351.28 144.71L345.71 152.37L359.69 224.11L434.43 209.54L440 201.88L426.02 130.14V130.16H426.03ZM392.44 113.28C391.56 112.98 390.62 112.71 389.6 112.5C390.57 112.67 391.52 112.93 392.44 113.28ZM371.3 131.15C370.49 127.02 371.36 122.75 373.72 119.26C376.07 115.77 379.71 113.37 383.84 112.56C385.77 112.18 387.72 112.18 389.61 112.51C398.29 115.39 400.6 120.14 402.04 127.75C402.61 130.78 403.29 134.28 403.29 134.28L404.19 134.11L404.25 134.42L373.13 140.48L371.31 131.14L371.3 131.15Z" fill="#001F2C" stroke="#001F2C" stroke-linejoin="round"/>
<path d="M376.97 102.14C376.2 98.1701 376.21 94.0901 377.02 90.1301C377.83 86.1701 379.41 82.4001 381.66 79.0501C383.92 75.6901 386.82 72.8201 390.19 70.5801C393.57 68.3401 397.34 66.8001 401.32 66.0301C405.29 65.2601 409.38 65.2701 413.33 66.0801C417.29 66.8901 421.06 68.4701 424.41 70.7201C427.77 72.9801 430.64 75.8801 432.88 79.2501C435.12 82.6301 436.67 86.4001 437.43 90.3701L444.04 124.26C444.37 125.96 441.68 127.91 438.04 128.61C434.39 129.32 431.17 128.52 430.84 126.82L424.23 92.9301C423.35 88.4201 420.71 84.4301 416.9 81.8701C413.09 79.3001 408.4 78.3501 403.89 79.2301C399.38 80.1101 395.39 82.7501 392.83 86.5601C390.26 90.3701 389.31 95.0601 390.19 99.5701L396.8 133.46C397.13 135.16 394.44 137.11 390.8 137.81C387.15 138.52 383.93 137.72 383.6 136.02L376.99 102.13H376.97V102.14Z" fill="#00D5FF" stroke="#001F2C" stroke-miterlimit="10"/>
<path d="M368.3 114.43L450.09 98.49L465.39 176.99L383.6 192.93L368.3 114.43Z" fill="#00D5FF" stroke="#001F2C" stroke-linejoin="round"/>
<path d="M412.08 153.58L414.35 165.21L426.47 162.84L424.2 151.21C426.4 149.38 427.94 146.87 428.55 144.08C429.17 141.28 428.84 138.37 427.61 135.78C426.38 133.19 424.34 131.1 421.78 129.8C419.22 128.51 416.32 128.1 413.51 128.65C410.7 129.2 408.16 130.67 406.28 132.81C404.4 134.97 403.28 137.68 403.12 140.54C402.96 143.4 403.75 146.22 405.37 148.58C406.99 150.94 409.36 152.68 412.08 153.55V153.57V153.58Z" fill="white" stroke="#00222F" stroke-miterlimit="10"/>
<path d="M422.98 139.96C423.42 142.23 423.24 144.57 422.46 146.75C421.68 148.93 420.33 150.85 418.56 152.32L420.83 163.95L426.48 162.85L424.21 151.22C426.41 149.39 427.92 146.89 428.53 144.1C429.14 141.31 428.81 138.4 427.59 135.82C426.37 133.24 424.32 131.14 421.78 129.85C419.23 128.56 416.33 128.14 413.53 128.68C412.58 128.87 411.65 129.16 410.76 129.55C413.67 129.65 416.46 130.73 418.68 132.63C420.9 134.52 422.4 137.1 422.96 139.96H422.97H422.98Z" fill="#001E2B"/>
<path d="M381.71 111.52L379.2 98.8199C377.26 88.9799 379.09 83.8099 381.87 78.6899C375.64 89.6799 376.31 97.1099 376.96 100.4L379.25 112.01L381.72 111.52H381.71Z" fill="#001F2C" stroke="#001F2C" stroke-miterlimit="10"/>
<path d="M427.88 102.47C426.13 92.8199 423.68 81.9299 410.2 79.1599C419.7 82.3099 422.24 87.5099 423.8 95.8399C424.43 99.1699 425.17 102.98 425.17 102.98L427.89 102.46L427.88 102.47Z" fill="#001F2C" stroke="#001F2C" stroke-miterlimit="10"/>
<path d="M465.39 177L459.29 185.38L377.5 201.33L383.6 192.94L465.39 177Z" fill="#001F2C" stroke="#001F2C" stroke-linejoin="round"/>
<path d="M368.3 114.43L383.6 192.93L377.5 201.32L362.2 122.81L368.3 114.43Z" fill="#001F2C" stroke="#001F2C" stroke-linejoin="round"/>
<path d="M300.52 105.05C300.33 105.32 300.13 105.59 299.94 105.86" stroke="#001F2C" stroke-miterlimit="10"/>
<path d="M298.74 107.42C286.791 122.259 267.001 127.048 246 118.283M160.41 102.64C165.731 96.6077 173.309 92.4836 182.5 91.4199" stroke="#001F2C" stroke-miterlimit="10"/>
<path d="M182.5 91.4199C195.386 89.9287 211.44 94.4535 228.88 108.17C234.588 112.572 240.338 115.92 246 118.283" stroke="white" stroke-miterlimit="10" stroke-linecap="round"/>
<path d="M159.76 103.41C159.55 103.67 159.34 103.93 159.14 104.19" stroke="#001F2C" stroke-miterlimit="10"/>
<path d="M154.19 125.63L130.23 125.79L117.28 102.04L140.87 101.2L154.19 125.63Z" fill="#00222F" stroke="#001F2C" stroke-linejoin="round"/>
<path d="M154.24 125.6L167.35 105.55L154.4 81.8L140.92 101.17L154.24 125.6Z" fill="white" stroke="#001F2C" stroke-linejoin="round"/>
<path d="M130.91 82.94L117.28 102.04L140.92 101.17L154.4 81.8L130.91 82.94Z" fill="white" stroke="#001F2C" stroke-linejoin="round"/>
<path d="M203.58 441.39H189.23V443.78H203.58V441.39Z" fill="#001F2C" stroke="#001F2C" stroke-linejoin="round"/>
<path d="M185.65 441.39H171.3V443.78H185.65V441.39Z" fill="#001F2C" stroke="#001F2C" stroke-linejoin="round"/>
<path d="M221.52 441.39H207.17V443.78H221.52V441.39Z" fill="#001F2C" stroke="#001F2C" stroke-linejoin="round"/>
<path d="M282.5 441.39H225.7V443.78H282.5V441.39Z" fill="#001F2C" stroke="#001F2C" stroke-linejoin="round"/>
<path d="M302.23 441.39H287.88V443.78H302.23V441.39Z" fill="#001F2C" stroke="#001F2C" stroke-linejoin="round"/>
<path d="M320.76 441.39H306.41V443.78H320.76V441.39Z" fill="#001F2C" stroke="#001F2C" stroke-linejoin="round"/>
<path d="M339.3 441.39H324.95V443.78H339.3V441.39Z" fill="#001F2C" stroke="#001F2C" stroke-linejoin="round"/>
</g>
<defs>
<clipPath id="clip0_112_19097">
<rect width="717" height="538" fill="white"/>
</clipPath>
</defs>
</svg>
